<svg id="Layer_1" data-name="Layer 1" xmlns="http://www.w3.org/2000/svg" viewBox="0 0 967.1 666"><defs><style>.cls-1{opacity:0.67;}.cls-2{fill:#02683e;}.cls-3{fill:#00ad66;}.cls-4{fill:#11794e;}.cls-5{fill:#007249;}.cls-6{fill:#076c43;}.cls-7{fill:#05a867;}.cls-52,.cls-8{fill:#108e5a;}.cls-32,.cls-38,.cls-8{fill-rule:evenodd;}.cls-28,.cls-9{fill:none;}.cls-9{stroke:#024d2d;stroke-linecap:round;stroke-linejoin:round;}.cls-10{fill:#ee322c;}.cls-11{fill:#ed1c24;}.cls-12{opacity:0.76;}.cls-13{fill:#ee2a58;}.cls-14{fill:#ffc809;}.cls-15{fill:#5294cf;}.cls-16{fill:#6f2a1b;}.cls-17{fill:#bed8f1;}.cls-18{fill:#f04e4b;}.cls-19,.cls-40{fill:#21b576;}.cls-20{fill:#0f915b;}.cls-21{fill:#592b3c;}.cls-22{fill:#935d51;}.cls-23{fill:#fff;}.cls-24,.cls-25,.cls-26,.cls-27{fill:#f15854;}.cls-24{fill-opacity:0.82;opacity:0.89;}.cls-24,.cls-25,.cls-56{isolation:isolate;}.cls-25{fill-opacity:0.9;opacity:0.93;}.cls-26{fill-opacity:0.75;}.cls-27{fill-opacity:0.92;}.cls-28{stroke:#925e52;stroke-miterlimit:10;stroke-width:5.81px;}.cls-29{fill:#ac6352;}.cls-30{fill:#984b3a;}.cls-31{fill:#925e52;}.cls-32,.cls-37{fill:#f6c927;}.cls-33{opacity:0.7;}.cls-34{fill:#dbb227;}.cls-35{fill:#ebafb2;}.cls-36{fill:#cba52d;}.cls-38{fill:#fee692;}.cls-39{fill:#f0524e;}.cls-40{fill-opacity:0.56;}.cls-41{fill:#b73a37;}.cls-42{fill:#082117;}.cls-43{fill:#ffd33a;}.cls-44{fill:#fbb98f;}.cls-45{fill:#181818;}.cls-46{fill:#f69477;}.cls-47{fill:#f37665;}.cls-48,.cls-56{fill:#fcc29d;}.cls-49{fill:#0d8a57;}.cls-50{fill:#05ad69;}.cls-51{fill:#0d8e59;}.cls-53{fill:#f79a7f;}.cls-54{fill:#121212;}.cls-55,.cls-56{opacity:0.4;}.cls-57{fill:#87cdae;}.cls-58{fill:#fbb892;}</style></defs><title>homepage-img</title><g class="cls-1"><path class="cls-2" d="M71.39,643.45l-14.9,5,14.62-9.17c-.12-1.4-.27-2.82-.45-4.24l-7.86,1.51,7.44-4.6c-1.7-11-5.49-24.72-10.7-38.77l-29,11.17,27.72-14.58c-7.28-18.87-17-37.88-27.56-51l-15.59,11L27.54,535c-9.6-10.66-19.74-16.09-29.25-11.89-11.56,5.1-14.88,29.82-11.32,59.63l7.81-.13-7.63,1.52a251.63,251.63,0,0,0,8.71,40.71l29.77-10L-2.8,629.18c6.29,19.57,15,38.3,25.81,52.65l11.74-11.72-9.54,14.55c9.1,11.28,19.58,19.46,31.28,22.55C56.49,707.21,73,679.44,71.39,643.45Z" transform="translate(192.41 -343.3)"/><path class="cls-3" d="M58.19,707.21s16.55-27.77,14.9-63.76l-14.9,5,14.62-9.17c-.11-1.4-.26-2.82-.44-4.24l-7.87,1.51,7.45-4.6c-1.71-11-5.5-24.72-10.7-38.77l-29,11.17L60,589.73c-7.28-18.87-17-37.88-27.55-51l-15.59,11L29.25,535C19.65,524.35,9.51,518.92,0,523.12c0,0,43.28,103,57.36,183.84Z" transform="translate(192.41 -343.3)"/><path class="cls-4" d="M48.88,729.84l-11,2.57L47.93,727c-1-3-2.28-6-3.76-9.25a150.06,150.06,0,0,0-12.52-21.53l-9.92,7.53,7-11.63c-15.39-20.82-35.61-37.65-45.56-21.27-4.08,6.73-4.35,17.44-1.53,29.49l22.57-.79-21.76,4A112.22,112.22,0,0,0-6.92,728.83l7.61-3.42-6.56,5.24a112.56,112.56,0,0,0,18.38,23.57L28,737.31,14.66,756.23c9.4,8.55,20.33,15,32.31,17.47C47,773.7,57.88,758.43,48.88,729.84Z" transform="translate(192.41 -343.3)"/><path class="cls-3" d="M46.08,773.5l.89.2s10.91-15.27,1.92-43.86l-11,2.57L47.93,727c-1-3-2.27-6-3.76-9.25a148.2,148.2,0,0,0-12.52-21.53l-9.92,7.53,7-11.63C14.22,672.46-4.58,656.39-15,668.33-6.66,679.58,28.57,728.33,46.08,773.5Z" transform="translate(192.41 -343.3)"/><path class="cls-5" d="M14.93,761.28C8.77,755.47-2.21,748.35-15,741.8c-5.53,8.15-11.71,17.36-12.77,19.38-.15.36-.21.48-.14.3a1.78,1.78,0,0,1,.14-.3c.89-2.11,5.22-12.76,8.73-21.41A228.54,228.54,0,0,0-42.83,729.7l-4.37,20.71,2-21.52c-25-8.49-48.41-10.32-51.38,6.11-.83,4.54.77,9.58,4.19,14.86,9.6-.56,23.49-1.46,23.49-1.46l-20.25,5.87c7.43,9.14,19.63,18.74,33.78,27.52l12.15-23.55-9.94,24.9A275,275,0,0,0-5.87,805.85c1.32-5.81,2.29-10,2.29-10l.19,10.89c3,1,5.94,2,8.8,2.84l1.28-5,.85,5.63c14.25,4,26.36,5.23,33.3,2.34C40.84,812.51,46.36,790.92,14.93,761.28Z" transform="translate(192.41 -343.3)"/><path class="cls-6" d="M101.21,606.25c15-36.91,35.55-44.62,43.94-43.86,13.91-1.83,14.64,22.39,13.27,34.72h-21l21,4.11c-.37,19.74-5.64,40.82-8.24,48.89l-26.08-5,26.08,8.68A342,342,0,0,1,129.59,710L103,697.62l25.17,15.08-3.2,5.48-7.32-1.37,6.41,3.2c-11.35,23-32.5,32.43-41.65,34.26-7.69-9.14-9.92-26.65-10.07-34.26l13.73-3.2H72.38c-1.46-13.16,3.05-35.94,5.49-45.69l10.53,4.57-10.07-6.85,1.37-4.57,22.43,6.85-20.6-12.79c2.2-12.79,12.82-37.92,17.85-48.88l14.19,1.83Z" transform="translate(192.41 -343.3)"/><path class="cls-7" d="M124.32,720.78c-11.59,22.79-32.66,32.46-41.75,34.44,13.63-93.89,49.7-167.54,66-192.63,11.24,2,11.5,24.38,10.22,35.3L138,597l20.87,3.83a273.49,273.49,0,0,1-7.67,49.75l-28.11-6,26.84,8.93c-6.48,27.9-16.33,49.33-20.45,56.56l-26-12.76,25.14,15.31-3.41,5.95-7.24-1.7Z" transform="translate(192.41 -343.3)"/><path class="cls-8" d="M68.67,886.44l-.66-.05.66.05a.67.67,0,0,1-1.33,0c-2.27-38-18.23-66.35-38.35-87.4-16.88-17.09-36.26-29.94-55.4-39.58v0a299.5,299.5,0,0,0-32.44-13.61c-2.2-.8-3.89-1.42-5-1.86l-.17-.11a305.64,305.64,0,0,0-32-8.53l0-.25c0-.14,0-.28,0-.42,3-15.84,26.2-14,51.14-5.85L-46.72,749l.07,0,4.21-19.4a231,231,0,0,1,23.72,9.73c-2.8,6.71-6.13,14.67-7.79,18.58l.82.4c2.35-3.64,7.15-10.63,11.54-17,12.86,6.46,23.93,13.5,30.14,19.23,31.69,29.25,26.14,50.54,26.14,50.54-.27.11-.55.22-.84.31A134.35,134.35,0,0,1,67.8,876.82c.17-4.66.35-10.91.44-18.51.21-17.63-.07-42.48-2-71.31-3.92-57.7-14.54-131.33-41.34-195.23a.67.67,0,0,1,.36-.87.65.65,0,0,1,.87.35C53,655.35,63.62,729.15,67.54,786.9c2,28.89,2.24,53.77,2,71.43-.11,8.83-.33,15.85-.53,20.67-.1,2.41-.2,4.27-.27,5.52,0,.63-.06,1.11-.08,1.43,0,.16,0,.28,0,.36v.12Z" transform="translate(192.41 -343.3)"/><path class="cls-9" d="M7.7,700.21S68,784.2,68,886.39c9.11-178.48,55.46-275.74,55.46-275.74" transform="translate(192.41 -343.3)"/><path class="cls-10" d="M87.7,858.13H39.33S26.31,961.05,68.17,973,87.7,858.13,87.7,858.13Z" transform="translate(192.41 -343.3)"/><path class="cls-11" d="M96.2,858.13H50.85S40.59,961.05,73.57,973C126,978.89,96.2,858.13,96.2,858.13Z" transform="translate(192.41 -343.3)"/></g><g class="cls-12"><path class="cls-13" d="M106.49,376.25H90.85V437.7h15.64Z" transform="translate(192.41 -343.3)"/><path class="cls-14" d="M125,376.25H109.39V437.7H125Z" transform="translate(192.41 -343.3)"/><path class="cls-15" d="M136.6,377.35l-13.25,8.31,32.76,52,13.25-8.3Z" transform="translate(192.41 -343.3)"/><path class="cls-16" d="M258.66,451.25H89.85A13.57,13.57,0,0,1,76.27,437.7h196a13.57,13.57,0,0,1-13.58,13.55Z" transform="translate(192.41 -343.3)"/><path class="cls-17" d="M261.87,378.53H187.13V437.7h74.74Z" transform="translate(192.41 -343.3)"/><path class="cls-18" d="M256.88,384.34H192.13v47.54h64.75Z" transform="translate(192.41 -343.3)"/><path class="cls-14" d="M224.5,423.36a15.25,15.25,0,1,0-15.28-15.24A15.27,15.27,0,0,0,224.5,423.36Z" transform="translate(192.41 -343.3)"/><path class="cls-19" d="M243,431.88H192.13V409.12c8.78-.34,21.73.73,34,7.75A54.77,54.77,0,0,1,243,431.88Z" transform="translate(192.41 -343.3)"/><path class="cls-20" d="M256.87,400.61v31.27H216.13a65.24,65.24,0,0,1,10-15A48.36,48.36,0,0,1,256.87,400.61Z" transform="translate(192.41 -343.3)"/><path class="cls-21" d="M115.9,463H103.72l1.68-25.31h8.82Z" transform="translate(192.41 -343.3)"/><path class="cls-21" d="M244.79,463H232.61l1.68-25.31h8.82Z" transform="translate(192.41 -343.3)"/><path class="cls-22" d="M501,424.43H327.27V343.3H501ZM334.72,417H493.55V350.73H334.72Z" transform="translate(192.41 -343.3)"/><path class="cls-23" d="M493.55,350.73H334.72V417H493.55Z" transform="translate(192.41 -343.3)"/><path class="cls-14" d="M370,399.74a24.83,24.83,0,1,0-29.91-18.51A24.84,24.84,0,0,0,370,399.74Z" transform="translate(192.41 -343.3)"/><path class="cls-20" d="M334.72,396.07l47.22-21a22.67,22.67,0,0,1,23.2,2.86L455,417H334.72Z" transform="translate(192.41 -343.3)"/><path class="cls-19" d="M417.16,387.32l35.56-11.73A22.62,22.62,0,0,1,475,380.3l18.52,16.76V417H455Z" transform="translate(192.41 -343.3)"/></g><path class="cls-24" d="M242.22,538.85a3.54,3.54,0,0,0-3.41,2.91,59.85,59.85,0,0,1-8.53.06c-1.76-.11-3.42-.29-5-.52,0-.3,0-.6,0-.9a30.91,30.91,0,0,0-.3-4.34,15.42,15.42,0,0,1,3-1.8,15.71,15.71,0,0,1,5.54-1.4,3.58,3.58,0,0,0,4.06,2.24,3.92,3.92,0,0,0-1.95-7.53,3.6,3.6,0,0,0-2.45,4.08,12.14,12.14,0,0,1-5.7,1.62,11.62,11.62,0,0,1-3.09-.34,31.11,31.11,0,0,0-2.3-6.29,32.19,32.19,0,0,1,3.72-2.92,32.87,32.87,0,0,1,5.89-3.13,3.54,3.54,0,0,0,4.42,1,3.7,3.7,0,0,0,1-5.09,3.66,3.66,0,0,0-4.9-1.65,3.59,3.59,0,0,0-1.37,4.34,33,33,0,0,1-5.64,3.55,31.89,31.89,0,0,1-4.32,1.79,30.74,30.74,0,0,0-3.77-5.07,22.48,22.48,0,0,1,3.05-6.65,22.13,22.13,0,0,1,4.51-4.9,3.54,3.54,0,0,0,4.57-.45,3.69,3.69,0,0,0-.64-5.15,3.64,3.64,0,0,0-5.16,0,3.58,3.58,0,0,0,.13,4.62,22.41,22.41,0,0,1-4.27,5.12,21.89,21.89,0,0,1-6.12,3.81,30.38,30.38,0,0,0-6.26-3.73,14.45,14.45,0,0,1,1.32-2.72,15.17,15.17,0,0,1,1.43-1.88,3.56,3.56,0,0,0,4.48-1.26,3.91,3.91,0,0,0-6.66-4,3.61,3.61,0,0,0,1,4.51,24.46,24.46,0,0,1-1,2.34,23.36,23.36,0,0,1-1.52,2.56l-.68-.27a30.71,30.71,0,0,0-8.48-1.85,26.33,26.33,0,0,1-1.42-12.65,3.56,3.56,0,0,0,3.05-3.36,3.9,3.9,0,0,0-7.74,0,3.58,3.58,0,0,0,3.13,3.38,23.9,23.9,0,0,1,.05,8.48,24.29,24.29,0,0,1-1.12,4.13,30.14,30.14,0,0,0-8.15,1.6,11.54,11.54,0,0,1-1-1.89,13.3,13.3,0,0,1-.92-3.82,3.61,3.61,0,0,0,1.94-4.33,3.9,3.9,0,0,0-7.27,2.67,3.54,3.54,0,0,0,4,2.11,22.24,22.24,0,0,1,1.38,3.63c.2.73.35,1.45.47,2.14a30.33,30.33,0,0,0-6.56,3.61,28.56,28.56,0,0,1-3.22-2.72,29.41,29.41,0,0,1-5.21-6.89,3.59,3.59,0,0,0,.41-4.56,3.65,3.65,0,0,0-5.15-.36,3.7,3.7,0,0,0-1,5.1,3.55,3.55,0,0,0,4.54.75,22.59,22.59,0,0,1,6.74,11c-.32.3-.65.61-1,.92a31,31,0,0,0-4.2,5.26,22.31,22.31,0,0,1-2.2-.77,22.92,22.92,0,0,1-5.74-3.36,3.59,3.59,0,0,0-1.45-4.37,3.64,3.64,0,0,0-4.85,1.76,3.69,3.69,0,0,0,1.13,5.06,3.55,3.55,0,0,0,4.44-1.12,23.49,23.49,0,0,1,5.92,3c.64.46,1.23.93,1.78,1.41a30.5,30.5,0,0,0-3.46,10.12,38.73,38.73,0,0,1-4.77.13,40.77,40.77,0,0,1-6.55-.73,3.59,3.59,0,0,0-3-3.66A3.92,3.92,0,0,0,149,539a3.59,3.59,0,0,0,3.68-2.83,44.18,44.18,0,0,1,6.57.63,43.1,43.1,0,0,1,4.61,1.06c-.06.82-.1,1.65-.1,2.5a31.25,31.25,0,0,0,.55,5.84,25.21,25.21,0,0,1-6.73,3.18,25.5,25.5,0,0,1-6.57,1.07,3.54,3.54,0,0,0-3.88-2.42,3.92,3.92,0,0,0,1.47,7.64,3.55,3.55,0,0,0,2.7-3.63,39.58,39.58,0,0,1,14-1.92,30.64,30.64,0,0,0,3.56,7.32,21.34,21.34,0,0,1-2.37,1.63,20.73,20.73,0,0,1-4.71,2,3.54,3.54,0,0,0-4.27-1.62,3.68,3.68,0,0,0-1.71,4.89,4,4,0,0,0,2.62,2.43,3,3,0,0,0,2.54-.4,3.74,3.74,0,0,0,1.28-4.3,28.57,28.57,0,0,1,8-2.76,29.55,29.55,0,0,0,3.08,3.43c.11.1.21.21.32.3a25.9,25.9,0,0,1-3.59,5.81,25.42,25.42,0,0,1-4.87,4.55,3.54,3.54,0,0,0-4.56.15,3.91,3.91,0,0,0,5.44,5.54,3.59,3.59,0,0,0,.23-4.55,33.83,33.83,0,0,1,10.42-9,30.79,30.79,0,0,0,7.68,4,23.39,23.39,0,0,1-3.16,9.52,3.56,3.56,0,0,0-4.12,2,3.9,3.9,0,0,0,7.22,2.81,3.58,3.58,0,0,0-1.65-4.24,33.56,33.56,0,0,1,2.17-6.33,33.2,33.2,0,0,1,1.66-3.11,30.68,30.68,0,0,0,6.62,1,43.17,43.17,0,0,1,.83,6,44.4,44.4,0,0,1-.27,8.55,3.56,3.56,0,0,0-3,3.36,3.9,3.9,0,0,0,7.74,0,3.55,3.55,0,0,0-3-3.35,50.29,50.29,0,0,1-.28-8.56,51,51,0,0,1,.67-6,30.37,30.37,0,0,0,6.92-1.07c.19.32.38.66.56,1a24.14,24.14,0,0,1,2.2,6.22,3.59,3.59,0,0,0-1.78,4.2A3.9,3.9,0,0,0,211,579a3.57,3.57,0,0,0-4.11-2.11,16.72,16.72,0,0,1-2.12-6.33c0-.34-.07-.67-.09-1a30.27,30.27,0,0,0,6.92-3.46,39.74,39.74,0,0,1,4.28,4.07,39.31,39.31,0,0,1,5,6.93,3.58,3.58,0,0,0-.39,4.53,3.66,3.66,0,0,0,5.16.36,3.7,3.7,0,0,0,1-5.1,3.53,3.53,0,0,0-4.43-.81,47.06,47.06,0,0,1-5.41-6.61,48.3,48.3,0,0,1-2.94-5,30.54,30.54,0,0,0,2.46-2.23,29.68,29.68,0,0,0,3.48-4.18,36.23,36.23,0,0,1,6.46,2.51,34.9,34.9,0,0,1,5.65,3.53,3.6,3.6,0,0,0,1.4,4.33,3.92,3.92,0,0,0,3.84-6.76,3.56,3.56,0,0,0-4.45,1,26.72,26.72,0,0,1-11-7.82,30.08,30.08,0,0,0,2.06-4.84,25.38,25.38,0,0,1,9.28,2.12,3.57,3.57,0,0,0,2.48,3.86,3.92,3.92,0,0,0,1.93-7.53,3.56,3.56,0,0,0-4,2.19A22.79,22.79,0,0,1,227,549.2a21.47,21.47,0,0,1-2.59-1.2,29.28,29.28,0,0,0,.81-4.81c1.6-.13,3.29-.21,5.07-.21a62,62,0,0,1,8.51.55,3.55,3.55,0,0,0,3.24,3.1,3.92,3.92,0,0,0,.22-7.78Z" transform="translate(192.41 -343.3)"/><path class="cls-25" d="M-42.2,453.81a5.46,5.46,0,0,0-5.25,4.5,94,94,0,0,1-13.1.1c-2.71-.18-5.26-.46-7.66-.81,0-.46,0-.93,0-1.4a47.82,47.82,0,0,0-.47-6.7,24.07,24.07,0,0,1,4.59-2.77,24.06,24.06,0,0,1,8.52-2.16A5.48,5.48,0,0,0-49.31,448c2.81-.74,4.41-3.94,3.58-7.15s-3.77-5.22-6.58-4.48a5.6,5.6,0,0,0-3.76,6.3,18.51,18.51,0,0,1-8.75,2.51,17.89,17.89,0,0,1-4.76-.52A47.77,47.77,0,0,0-73.11,435a49,49,0,0,1,5.72-4.5,50.07,50.07,0,0,1,9-4.84,5.42,5.42,0,0,0,6.8,1.51c2.51-1.46,3.22-5,1.58-7.85s-5-4-7.53-2.55a5.53,5.53,0,0,0-2.1,6.7,51.66,51.66,0,0,1-8.67,5.49,52,52,0,0,1-6.63,2.75,46.88,46.88,0,0,0-5.8-7.82A34.94,34.94,0,0,1-76,413.57,34.53,34.53,0,0,1-69.08,406a5.43,5.43,0,0,0,7-.69c1.92-2.2,1.48-5.77-1-8s-6-2.19-7.93,0a5.57,5.57,0,0,0,.2,7.13,33.9,33.9,0,0,1-6.56,7.9,33.36,33.36,0,0,1-9.4,5.88,46.94,46.94,0,0,0-9.62-5.75,21.2,21.2,0,0,1,2-4.19,21.49,21.49,0,0,1,2.2-2.91,5.46,5.46,0,0,0,6.88-1.95c1.48-2.52.4-5.94-2.43-7.63s-6.31-1-7.8,1.49a5.58,5.58,0,0,0,1.49,7,34.93,34.93,0,0,1-1.6,3.62,34.86,34.86,0,0,1-2.34,3.95l-1-.41a46.92,46.92,0,0,0-13-2.86,41.21,41.21,0,0,1-1.86-6.77,41.12,41.12,0,0,1-.33-12.76,5.49,5.49,0,0,0,4.69-5.18c0-2.94-2.67-5.31-6-5.31s-6,2.37-6,5.31a5.52,5.52,0,0,0,4.82,5.21,37.16,37.16,0,0,1,.07,13.1,37.55,37.55,0,0,1-1.71,6.37A46,46,0,0,0-130.75,411a18,18,0,0,1-1.49-2.91,20.48,20.48,0,0,1-1.41-5.9,5.59,5.59,0,0,0,3-6.69c-1-2.75-4.31-4.06-7.39-2.92s-4.78,4.29-3.78,7a5.43,5.43,0,0,0,6.11,3.26,33.8,33.8,0,0,1,2.12,5.61,33.42,33.42,0,0,1,.73,3.3A46.68,46.68,0,0,0-143,417.39a42.86,42.86,0,0,1-4.95-4.2,45.12,45.12,0,0,1-8-10.63,5.58,5.58,0,0,0,.62-7.05c-1.77-2.32-5.31-2.57-7.92-.54s-3.28,5.54-1.51,7.87a5.43,5.43,0,0,0,7,1.15,35,35,0,0,1,7.95,10.54,35.38,35.38,0,0,1,2.41,6.49c-.5.46-1,.94-1.48,1.43a47.74,47.74,0,0,0-6.44,8.11,35.23,35.23,0,0,1-3.39-1.18,35.17,35.17,0,0,1-8.82-5.19,5.55,5.55,0,0,0-2.22-6.75c-2.54-1.41-5.89-.2-7.47,2.71s-.79,6.41,1.75,7.82a5.44,5.44,0,0,0,6.83-1.74,36,36,0,0,1,9.08,4.71c1,.71,1.9,1.44,2.74,2.17a47.5,47.5,0,0,0-5.32,15.63,64,64,0,0,1-7.32.2,62.43,62.43,0,0,1-10.06-1.13c-.07-2.93-2-5.38-4.64-5.65-2.88-.31-5.5,2.12-5.84,5.42s1.72,6.22,4.6,6.52a5.48,5.48,0,0,0,5.65-4.36,66.65,66.65,0,0,1,10.11,1,66.08,66.08,0,0,1,7.08,1.64c-.1,1.27-.16,2.55-.16,3.85a48,48,0,0,0,.85,9,39,39,0,0,1-10.35,4.9,39,39,0,0,1-10.09,1.66,5.45,5.45,0,0,0-6-3.74c-2.84.56-4.66,3.65-4,6.9s3.44,5.45,6.29,4.9a5.5,5.5,0,0,0,4.15-5.6,60.79,60.79,0,0,1,10-2.37,60.14,60.14,0,0,1,11.58-.6,47.62,47.62,0,0,0,5.47,11.3,32.16,32.16,0,0,1-3.64,2.51,30.46,30.46,0,0,1-7.24,3.09,5.43,5.43,0,0,0-6.55-2.5c-2.69,1.1-3.88,4.48-2.64,7.56a6.18,6.18,0,0,0,4,3.74,4.7,4.7,0,0,0,3.07-.16,4.27,4.27,0,0,0,.84-.46,5.79,5.79,0,0,0,2-6.63,44,44,0,0,1,7.18-3,44.82,44.82,0,0,1,5-1.27,45.87,45.87,0,0,0,4.74,5.3l.48.46a39.17,39.17,0,0,1-5.51,9,39.75,39.75,0,0,1-7.48,7,5.4,5.4,0,0,0-7,.23c-2.07,2.06-1.87,5.64.44,8s5.86,2.6,7.92.54a5.54,5.54,0,0,0,.35-7,52.45,52.45,0,0,1,7-7.53,52,52,0,0,1,9-6.35A47.27,47.27,0,0,0-131,501.28a36,36,0,0,1-.93,5.18,35.93,35.93,0,0,1-3.93,9.51,5.47,5.47,0,0,0-6.34,3.12c-1,2.73.59,5.91,3.65,7.11s6.4-.05,7.45-2.78a5.53,5.53,0,0,0-2.53-6.55,51.27,51.27,0,0,1,3.34-9.77,47.83,47.83,0,0,1,2.54-4.81,46.21,46.21,0,0,0,10.18,1.59,66.37,66.37,0,0,1,1.26,9.28,67.34,67.34,0,0,1-.41,13.21,5.49,5.49,0,0,0-4.66,5.19c0,2.93,2.67,5.3,6,5.3s6-2.37,6-5.3a5.48,5.48,0,0,0-4.63-5.18,77.61,77.61,0,0,1-.44-13.22,78.55,78.55,0,0,1,1-9.27,46,46,0,0,0,10.63-1.66c.29.51.59,1,.86,1.57a37,37,0,0,1,3.38,9.6,5.53,5.53,0,0,0-2.72,6.49c1,2.76,4.27,4.1,7.37,3s4.81-4.26,3.84-7a5.48,5.48,0,0,0-6.32-3.27,25.64,25.64,0,0,1-3.25-9.76c-.06-.53-.11-1-.14-1.55a46.45,46.45,0,0,0,10.63-5.34,59.84,59.84,0,0,1,6.57,6.27A59.91,59.91,0,0,1-75,512.92a5.55,5.55,0,0,0-.59,7c1.77,2.32,5.31,2.57,7.92.55s3.28-5.55,1.51-7.88A5.42,5.42,0,0,0-73,511.35a71.35,71.35,0,0,1-8.3-10.22,70.71,70.71,0,0,1-4.53-7.75A45.5,45.5,0,0,0-82,490a47.9,47.9,0,0,0,5.36-6.45,54.68,54.68,0,0,1,9.92,3.86,54.56,54.56,0,0,1,8.68,5.46,5.55,5.55,0,0,0,2.14,6.68c2.53,1.45,5.88.29,7.52-2.58s.9-6.4-1.62-7.86a5.43,5.43,0,0,0-6.82,1.59,40.73,40.73,0,0,1-9-4.84,41.86,41.86,0,0,1-7.82-7.22,47.57,47.57,0,0,0,3.17-7.48,39.84,39.84,0,0,1,4.44.41,38.21,38.21,0,0,1,9.82,2.87,5.5,5.5,0,0,0,3.8,5.95c2.81.74,5.75-1.28,6.57-4.49s-.8-6.41-3.6-7.14a5.48,5.48,0,0,0-6.2,3.39,35.16,35.16,0,0,1-9.95-2.3,34.06,34.06,0,0,1-4-1.85,47.81,47.81,0,0,0,1.24-7.43c2.45-.2,5-.33,7.79-.33a94.86,94.86,0,0,1,13.07.85,5.48,5.48,0,0,0,5,4.79c2.9.08,5.33-2.54,5.42-5.86S-39.3,453.9-42.2,453.81Z" transform="translate(192.41 -343.3)"/><path class="cls-26" d="M667.29,394.66a3.27,3.27,0,0,0-3.14,2.72,54.47,54.47,0,0,1-7.83.06c-1.61-.11-3.14-.28-4.58-.49,0-.28,0-.56,0-.85a30.2,30.2,0,0,0-.28-4.06,13.77,13.77,0,0,1,2.74-1.68,14.14,14.14,0,0,1,5.09-1.31,3.26,3.26,0,0,0,3.73,2.09,3.47,3.47,0,0,0,2.15-4.33,3.15,3.15,0,1,0-6.19,1.1,10.92,10.92,0,0,1-5.23,1.53,11.06,11.06,0,0,1-2.84-.32,28.89,28.89,0,0,0-2.12-5.89,28.59,28.59,0,0,1,3.42-2.73,30.09,30.09,0,0,1,5.41-2.94,3.21,3.21,0,0,0,4.06.92,3.5,3.5,0,0,0,.95-4.76,3.33,3.33,0,0,0-4.5-1.55,3.38,3.38,0,0,0-1.26,4.06,30.36,30.36,0,0,1-5.18,3.33,29.12,29.12,0,0,1-4,1.67,28.93,28.93,0,0,0-3.46-4.74,21.17,21.17,0,0,1,2.8-6.23,20.46,20.46,0,0,1,4.15-4.58,3.22,3.22,0,0,0,4.19-.42,3.51,3.51,0,0,0-.59-4.83,3.31,3.31,0,0,0-4.74,0,3.4,3.4,0,0,0,.12,4.32,20.4,20.4,0,0,1-3.92,4.79,20.13,20.13,0,0,1-5.63,3.57,27.58,27.58,0,0,0-5.75-3.49,12.82,12.82,0,0,1,1.22-2.54,12.58,12.58,0,0,1,1.31-1.76,3.23,3.23,0,0,0,4.11-1.19,3.48,3.48,0,0,0-1.45-4.62,3.31,3.31,0,0,0-4.66.9,3.41,3.41,0,0,0,.89,4.22,21.22,21.22,0,0,1-1,2.19,20.29,20.29,0,0,1-1.4,2.39c-.2-.08-.41-.17-.62-.24a27.41,27.41,0,0,0-7.79-1.74,24.63,24.63,0,0,1-1.11-4.1,25.37,25.37,0,0,1-.19-7.74,3.31,3.31,0,0,0,2.8-3.14,3.58,3.58,0,0,0-7.12,0,3.33,3.33,0,0,0,2.89,3.16,22.54,22.54,0,0,1-1,11.8,27.38,27.38,0,0,0-7.49,1.5,10.83,10.83,0,0,1-.89-1.77,12.38,12.38,0,0,1-.84-3.57,3.42,3.42,0,0,0,1.78-4.06,3.34,3.34,0,0,0-4.42-1.77,3.46,3.46,0,0,0-2.26,4.27,3.25,3.25,0,0,0,3.66,2,20.77,20.77,0,0,1,1.26,3.4,19.51,19.51,0,0,1,.44,2,27.81,27.81,0,0,0-6,3.37,26.58,26.58,0,0,1-3-2.54,27.26,27.26,0,0,1-4.78-6.45,3.42,3.42,0,0,0,.37-4.27A3.3,3.3,0,0,0,595,359a3.5,3.5,0,0,0-.91,4.77,3.21,3.21,0,0,0,4.17.7,21.07,21.07,0,0,1,4.75,6.39,21.36,21.36,0,0,1,1.44,3.94l-.88.86a28.83,28.83,0,0,0-3.85,4.92,21,21,0,0,1-7.3-3.87A3.4,3.4,0,0,0,591,372.6a3.33,3.33,0,0,0-4.46,1.65,3.49,3.49,0,0,0,1,4.74,3.22,3.22,0,0,0,4.08-1.06,21.46,21.46,0,0,1,5.43,2.86c.59.43,1.14.87,1.64,1.31a29.08,29.08,0,0,0-3.18,9.48,36.35,36.35,0,0,1-4.38.12,37.92,37.92,0,0,1-6-.68,3.35,3.35,0,0,0-2.78-3.43,3.39,3.39,0,0,0-3.49,3.28,3.44,3.44,0,0,0,2.75,4,3.28,3.28,0,0,0,3.38-2.65,39.6,39.6,0,0,1,6,.6,37.35,37.35,0,0,1,4.24,1c-.06.77-.09,1.55-.09,2.33a30,30,0,0,0,.5,5.48,23.21,23.21,0,0,1-6.19,3,22.77,22.77,0,0,1-6,1,3.26,3.26,0,0,0-3.56-2.27,3.46,3.46,0,0,0-2.41,4.19,3.38,3.38,0,0,0,3.76,3,3.34,3.34,0,0,0,2.48-3.4,35.93,35.93,0,0,1,12.89-1.8,29,29,0,0,0,3.26,6.85,18,18,0,0,1-2.17,1.53,18.43,18.43,0,0,1-4.33,1.87,3.24,3.24,0,0,0-3.92-1.52,3.49,3.49,0,0,0-1.57,4.58,3.73,3.73,0,0,0,2.4,2.28,2.84,2.84,0,0,0,1.84-.11,2.19,2.19,0,0,0,.5-.27,3.54,3.54,0,0,0,1.18-4,26.11,26.11,0,0,1,7.3-2.58,29,29,0,0,0,2.84,3.21l.29.28a24,24,0,0,1-7.77,9.7,3.21,3.21,0,0,0-4.19.13,3.51,3.51,0,0,0,.26,4.86,3.33,3.33,0,0,0,4.74.33,3.41,3.41,0,0,0,.21-4.26,31.06,31.06,0,0,1,9.57-8.41,27.93,27.93,0,0,0,7.06,3.74,21.87,21.87,0,0,1-.55,3.14,22.28,22.28,0,0,1-2.36,5.77,3.25,3.25,0,0,0-3.78,1.88,3.47,3.47,0,0,0,2.18,4.32,3.19,3.19,0,1,0,2.94-5.66,31.65,31.65,0,0,1,2-5.92c.49-1.06,1-2,1.52-2.92a27.26,27.26,0,0,0,6.09,1,41.35,41.35,0,0,1,.76,5.62,42.22,42.22,0,0,1-.25,8,3.31,3.31,0,0,0-2.79,3.14,3.58,3.58,0,0,0,7.12,0,3.3,3.3,0,0,0-2.77-3.13,48.18,48.18,0,0,1-.27-8,51.61,51.61,0,0,1,.62-5.62,27.24,27.24,0,0,0,6.36-1c.17.3.35.62.51.95a22.38,22.38,0,0,1,2,5.82,3.39,3.39,0,0,0-1.63,3.93,3.34,3.34,0,0,0,4.41,1.81,3.46,3.46,0,0,0,2.3-4.25,3.26,3.26,0,0,0-3.78-2,15.69,15.69,0,0,1-1.94-5.92c0-.32-.07-.63-.09-.94a27.42,27.42,0,0,0,6.36-3.24,35.47,35.47,0,0,1,3.93,3.81,36.66,36.66,0,0,1,4.58,6.48,3.41,3.41,0,0,0-.35,4.25,3.3,3.3,0,0,0,4.73.33,3.5,3.5,0,0,0,.91-4.77,3.2,3.2,0,0,0-4.08-.75,44.56,44.56,0,0,1-5-6.2,43.65,43.65,0,0,1-2.71-4.7,27.82,27.82,0,0,0,2.27-2.08,28.71,28.71,0,0,0,3.2-3.91,32.7,32.7,0,0,1,11.12,5.65,3.39,3.39,0,0,0,1.28,4.05,3.34,3.34,0,0,0,4.5-1.57,3.51,3.51,0,0,0-1-4.76,3.21,3.21,0,0,0-4.08,1,24.46,24.46,0,0,1-10.07-7.32,29.21,29.21,0,0,0,1.89-4.53,23.54,23.54,0,0,1,2.66.25,22.71,22.71,0,0,1,5.87,1.74,3.34,3.34,0,0,0,2.27,3.61,3.38,3.38,0,0,0,3.93-2.73,3.46,3.46,0,0,0-2.16-4.32,3.25,3.25,0,0,0-3.7,2.05,20.85,20.85,0,0,1-6-1.39,22.93,22.93,0,0,1-2.38-1.13,29,29,0,0,0,.75-4.5c1.46-.12,3-.2,4.65-.2a57.23,57.23,0,0,1,7.82.51,3.28,3.28,0,0,0,3,2.91,3.68,3.68,0,0,0,.2-7.28Z" transform="translate(192.41 -343.3)"/><path class="cls-27" d="M767.83,685.73c-3.37-.1-6.27,2.53-7.09,6.15a124,124,0,0,1-17.69.13c-3.63-.24-7.08-.63-10.31-1.11,0-.63,0-1.27,0-1.91a67.41,67.41,0,0,0-.64-9.16,31.72,31.72,0,0,1,6.2-3.8,32.19,32.19,0,0,1,11.49-2.95c1.53,3.55,5,5.62,8.41,4.72,3.79-1,6-5.39,4.84-9.78s-5.09-7.14-8.89-6.13c-3.45.93-5.56,4.65-5.06,8.62A24.8,24.8,0,0,1,737.3,674a24,24,0,0,1-6.41-.72,65.09,65.09,0,0,0-4.77-13.29,65.92,65.92,0,0,1,7.72-6.16,67.11,67.11,0,0,1,12.2-6.62c2.4,2.86,6.22,3.81,9.17,2.07,3.39-2,4.34-6.82,2.13-10.75S750.58,633,747.19,635c-3,1.74-4.05,5.6-2.84,9.16a68.75,68.75,0,0,1-20.65,11.28,63.57,63.57,0,0,0-7.82-10.7,48.39,48.39,0,0,1,6.32-14.06,46.93,46.93,0,0,1,9.36-10.34c3.18,2,7.19,1.7,9.47-1,2.6-3,2-7.89-1.33-10.88s-8.11-3-10.7,0c-2.28,2.66-2.1,6.76.27,9.75a46.14,46.14,0,0,1-8.85,10.8,44.71,44.71,0,0,1-12.69,8,63,63,0,0,0-13-7.87,29.05,29.05,0,0,1,2.74-5.73,30,30,0,0,1,3-4c3.53,1.47,7.5.41,9.28-2.68,2-3.44.54-8.12-3.28-10.44s-8.51-1.4-10.52,2.05c-1.75,3-.83,7,2,9.51a46.12,46.12,0,0,1-2.17,5,47.13,47.13,0,0,1-3.15,5.39c-.47-.19-.94-.38-1.41-.55a61.6,61.6,0,0,0-17.57-3.91,56.53,56.53,0,0,1-2.94-26.72,7.46,7.46,0,0,0,6.31-7.09c0-4-3.59-7.26-8-7.26s-8,3.25-8,7.26a7.5,7.5,0,0,0,6.51,7.13,51.15,51.15,0,0,1-2.22,26.63,61.56,61.56,0,0,0-16.91,3.38,25.5,25.5,0,0,1-2-4,28.18,28.18,0,0,1-1.9-8.07c3.46-1.85,5.24-5.72,4-9.15-1.34-3.77-5.8-5.56-10-4s-6.45,5.87-5.1,9.64a7.32,7.32,0,0,0,8.25,4.45,45.66,45.66,0,0,1,2.85,7.68,44.21,44.21,0,0,1,1,4.51,62.52,62.52,0,0,0-13.6,7.62,60.26,60.26,0,0,1-17.47-20.29c2.48-2.82,2.92-6.85.84-9.63-2.39-3.18-7.18-3.52-10.69-.75s-4.42,7.58-2,10.76c2.12,2.81,6.09,3.4,9.42,1.59A47.82,47.82,0,0,1,622.65,632a48.38,48.38,0,0,1,3.26,8.88c-.67.63-1.35,1.28-2,2a65.66,65.66,0,0,0-8.7,11.09,43.27,43.27,0,0,1-4.57-1.61,47.27,47.27,0,0,1-11.9-7.1c1.22-3.63,0-7.54-3-9.24-3.42-1.93-7.93-.26-10.06,3.72s-1.08,8.77,2.36,10.69c3,1.7,6.86.62,9.2-2.37a48.25,48.25,0,0,1,12.26,6.44c1.34,1,2.55,2,3.69,3A66,66,0,0,0,606,678.78a83,83,0,0,1-23.45-1.27c-.09-4-2.71-7.35-6.25-7.73-3.9-.42-7.43,2.9-7.9,7.41s2.33,8.51,6.22,8.93c3.47.37,6.64-2.22,7.63-6a88.54,88.54,0,0,1,23.19,3.57c-.14,1.74-.21,3.49-.21,5.27a67,67,0,0,0,1.14,12.35,51.82,51.82,0,0,1-27.57,9c-1.34-3.56-4.67-5.78-8-5.11-3.84.76-6.29,5-5.44,9.44s4.64,7.45,8.48,6.69c3.32-.65,5.59-3.9,5.6-7.65a80.53,80.53,0,0,1,29.08-4.07,65.07,65.07,0,0,0,7.37,15.46,40.28,40.28,0,0,1-4.91,3.44,41.52,41.52,0,0,1-9.77,4.22c-2-3.22-5.65-4.74-8.84-3.42-3.62,1.51-5.22,6.14-3.56,10.34a8.45,8.45,0,0,0,5.44,5.13,6.37,6.37,0,0,0,4.15-.23,5.9,5.9,0,0,0,1.13-.62c2.65-1.8,3.78-5.53,2.66-9.08A58.23,58.23,0,0,1,618.64,729a63,63,0,0,0,6.39,7.24q.33.33.66.63a54.15,54.15,0,0,1-7.44,12.27,53.36,53.36,0,0,1-10.09,9.62c-3-2.21-7-2.16-9.46.31-2.79,2.82-2.52,7.72.6,10.95s7.9,3.56,10.69.74c2.42-2.44,2.54-6.47.48-9.59a69.7,69.7,0,0,1,21.59-19A63.07,63.07,0,0,0,648,750.65a48.44,48.44,0,0,1-1.24,7.08,50.45,50.45,0,0,1-5.31,13,7.35,7.35,0,0,0-8.55,4.26c-1.4,3.74.81,8.1,4.94,9.73s8.61-.06,10-3.81a7.6,7.6,0,0,0-3.42-8.95A70.82,70.82,0,0,1,649,758.61a69.11,69.11,0,0,1,3.42-6.57,61.67,61.67,0,0,0,13.75,2.17,96.2,96.2,0,0,1,1.7,12.69,93.94,93.94,0,0,1-.56,18.08,7.45,7.45,0,0,0-6.29,7.09c0,4,3.59,7.26,8,7.26s8-3.25,8-7.26a7.47,7.47,0,0,0-6.25-7.09,109.88,109.88,0,0,1,.8-30.76A61.17,61.17,0,0,0,685.92,752c.4.69.78,1.41,1.16,2.15a50.43,50.43,0,0,1,4.56,13.13,7.62,7.62,0,0,0-3.67,8.88c1.31,3.78,5.76,5.6,9.94,4.08s6.5-5.82,5.18-9.6c-1.16-3.35-4.8-5.16-8.52-4.47a35.44,35.44,0,0,1-4.39-13.35c-.09-.72-.15-1.42-.19-2.12a62,62,0,0,0,14.35-7.31,82.17,82.17,0,0,1,19.21,23.23c-2.45,2.81-2.87,6.81-.8,9.58,2.39,3.18,7.17,3.51,10.69.74s4.42-7.58,2-10.76c-2.07-2.75-5.93-3.37-9.2-1.7a99.25,99.25,0,0,1-11.2-14,97.41,97.41,0,0,1-6.1-10.6,65,65,0,0,0,12.33-13.52,73.32,73.32,0,0,1,13.38,5.28,72.44,72.44,0,0,1,11.72,7.48c-1.19,3.55-.06,7.4,2.89,9.12,3.4,2,7.93.41,10.14-3.53s1.21-8.75-2.19-10.74c-3-1.74-6.82-.74-9.2,2.17a54.48,54.48,0,0,1-12.18-6.61,56.32,56.32,0,0,1-10.55-9.89,65.45,65.45,0,0,0,4.27-10.23,52,52,0,0,1,6,.56,51.33,51.33,0,0,1,13.25,3.93c-.29,3.8,1.8,7.27,5.12,8.15,3.79,1,7.77-1.76,8.88-6.15s-1.08-8.77-4.88-9.77c-3.33-.88-6.81,1.15-8.36,4.64a46.7,46.7,0,0,1-13.42-3.15,45.91,45.91,0,0,1-5.35-2.53,66.61,66.61,0,0,0,1.68-10.17c3.3-.27,6.81-.44,10.5-.45a127.34,127.34,0,0,1,17.63,1.17c.63,3.65,3.38,6.44,6.73,6.55,3.92.11,7.2-3.48,7.32-8S771.74,685.84,767.83,685.73Z" transform="translate(192.41 -343.3)"/><path class="cls-28" d="M539.15,578.53v338" transform="translate(192.41 -343.3)"/><path class="cls-29" d="M473.1,577.33s57.63,24.39,131.51-2.87l-39.9-90.38-59.1-1.44Z" transform="translate(192.41 -343.3)"/><path class="cls-30" d="M580.35,519.51c-23.22,26.25-60.93,37.31-100.5,38.16l-6.75,19.66s57.63,24.39,131.51-2.87Z" transform="translate(192.41 -343.3)"/><path class="cls-31" d="M33.67,968.51h583a7,7,0,0,1,7,7h0a7,7,0,0,1-7,6.95H33.67a7,7,0,0,1-6.94-6.95h0A7,7,0,0,1,33.67,968.51Z" transform="translate(192.41 -343.3)"/><path class="cls-32" d="M325.67,666.17a13.63,13.63,0,0,0-2-.15H171.84c-10.48,0-19,0-19,38.41V910.35c0-5.18,2.68-3.73,6.88-1.45,3.31,1.79,7.56,4.09,12.2,4.09H323.65a16.12,16.12,0,0,0,4.23-.59h148.6c6.45,0,12.36-2.29,16.95-4.08,5.85-2.27,9.58-3.72,9.58,1.44V704.47c0-38.3-11.78-38.3-26.34-38.3h-151Z" transform="translate(192.41 -343.3)"/><g class="cls-33"><g class="cls-33"><path class="cls-34" d="M165.08,773.28V910c0-9.82,7.67,2.82,17.13,2.82h136.2c6.9,0,12.84-6.71,15.56-6.55V910c0-1.87.27-2.92.78-3.4.52.48.8,1.53.8,3.4v-3.73c2.7-.13,8.57,6.55,15.39,6.55H485.85c9.38,0,17-12.64,17-2.82V691.12c0-2.19,0-4.24-.07-6.2Z" transform="translate(192.41 -343.3)"/></g></g><path class="cls-35" d="M180.22,874.88c0,13.87-7.94,25.12-17.75,25.12h-39c-9.8,0-17.75-11.25-17.75-25.12V784.45c0-13.88,7.95-25.12,17.75-25.12h39c9.81,0,17.75,11.24,17.75,25.12Z" transform="translate(192.41 -343.3)"/><path class="cls-36" d="M196.45,884.9c0,15.09-11.53,27.32-25.75,27.32H114.06c-14.23,0-25.75-12.23-25.75-27.32V786.54c0-15.09,11.52-27.32,25.75-27.32H170.7c14.22,0,25.75,12.23,25.75,27.32Z" transform="translate(192.41 -343.3)"/><path class="cls-36" d="M594,885.13c0,15.14-11.37,27.41-25.39,27.41H512.75c-14,0-25.4-12.27-25.4-27.41V786.47c0-15.14,11.37-27.41,25.4-27.41h55.86c14,0,25.39,12.27,25.39,27.41Z" transform="translate(192.41 -343.3)"/><path class="cls-31" d="M130.32,1000.61c0,4.8-3.14,8.69-7,8.69s-7-3.89-7-8.69v-30c0-4.8,3.13-8.69,7-8.69s7,3.89,7,8.69Z" transform="translate(192.41 -343.3)"/><path class="cls-31" d="M565.24,999.06c0,4.8-3.14,8.69-7,8.69s-7-3.89-7-8.69v-30c0-4.79,3.14-8.68,7-8.68s7,3.89,7,8.68Z" transform="translate(192.41 -343.3)"/><path class="cls-37" d="M577,759.22H557.32c-9.86,0-17.85,11.25-17.85,25.13V910H140.53V784.35c0-13.88-8-25.13-17.85-25.13H103.05c-9.86,0-17.85,11.25-17.85,25.13V956.5a30.52,30.52,0,0,0,5.7,18.38c3.26,4.92,7.89,8,13,8l473-1.25c9.86,0,17.85-11.26,17.85-25.14V784.35C594.81,770.47,586.82,759.22,577,759.22Z" transform="translate(192.41 -343.3)"/><path class="cls-23" d="M242.21,772.42H169.56c-2.76,0-5,2.61-5,5.83v84.6c0,3.22,2.24,5.83,5,5.83h72.65c2.76,0,5-2.61,5-5.83v-84.6C247.21,775,245,772.42,242.21,772.42Z" transform="translate(192.41 -343.3)"/><path class="cls-23" d="M523.34,781.62l-66.07-11.51c-2.51-.44-5,1.78-5.56,5L437.1,858.59c-.56,3.17,1,6.1,3.54,6.54l66.06,11.51c2.52.44,5-1.78,5.56-5l14.62-83.52C527.44,785,525.85,782.06,523.34,781.62Z" transform="translate(192.41 -343.3)"/><path class="cls-38" d="M285.1,929.21H157.32c-9.54,0-17.27-12.24-17.27-27.34v-24.6c0-15.1,7.73-27.34,17.27-27.34H324a11.47,11.47,0,0,1,4.21.82H515.83c13.41,0,24.29,12.11,24.29,27.06v24.34c0,15-10.88,27.06-24.29,27.06H285.1Z" transform="translate(192.41 -343.3)"/><path class="cls-39" d="M282.29,625.46a10,10,0,0,1-6.51-3.16c-4.45-4.76-10.82-15.84-1.69-35.52,17-36.66,79.15-31.16,94-4.52,10.55,18.94,21,22.7,15.38,28.4C378,616.16,313.24,628,282.29,625.46Z" transform="translate(192.41 -343.3)"/><path class="cls-23" d="M391.84,845.66l-.2,0c-13.45,2-27.08,3.75-40.75,4.81-.78.06-1.56.12-2.35.16a256.9,256.9,0,0,1-43.33-.22c-4.7-.47-9.4-1.1-14-1.95a19.37,19.37,0,0,1-15.7-22.1c1.58-9.76,2.62-19,3.3-27.72.1-1.29.2-2.57.28-3.83.69-10.16.91-19.51,1-28,0-.72,0-1.44,0-2.14v-1c0-.49,0-1,0-1.44v-1c0-.66,0-1.31,0-2,0-2,0-3.92,0-5.79v-.5c0-6.48,0-12.28.29-17.37,0-.23,0-.46,0-.68.06-1.06.11-2.11.16-3.14s.1-2,.14-3c.1-2.75.18-5.41.22-7.94,0-2.13,0-4.18,0-6.12,0-2.15-.11-4.16-.24-6,0-.62-.08-1.26-.13-1.91-.08-1-.16-2-.25-3.08,0-.64-.11-1.29-.17-2,0-.28-.05-.58-.08-.87a1.49,1.49,0,0,0,0-.21c0-.41-.07-.81-.11-1.23l-.12-1.21c-.06-.7-.13-1.42-.21-2.15-.34-3.39-.73-7-1.12-10.6-.13-1.14-.26-2.3-.39-3.47-.2-1.8-.41-3.62-.61-5.43-.13-1.17-.27-2.34-.4-3.5-2-17.6-3.89-34.44-3.22-39.79,1.16-9.26,46.07-33.69,46.07-33.69l27-.84s37.84,15.21,44.82,24.4l.11.13a20.25,20.25,0,0,1,3.15,8.88,70.94,70.94,0,0,1,.65,11.36c0,3-.15,6.32-.35,9.79-.2,3.69-.49,7.6-.8,11.7-.09,1.19-.18,2.4-.27,3.62s-.19,2.49-.29,3.76L393.7,675q-.26,3.29-.47,6.67l-.15,2.21c0,.46-.06.93-.08,1.4s-.06,1-.08,1.44h0c0,.44-.06.88-.08,1.32s0,1-.08,1.45c0,.88-.09,1.77-.12,2.67,0,.73-.07,1.48-.1,2.22,0,.14,0,.27,0,.41,0,.48,0,1,0,1.44v.37c0,.63,0,1.27-.05,1.9s0,1.52-.07,2.28c0,.35,0,.71,0,1.06s0,.64,0,1c0,.16,0,.32,0,.48,0,.44,0,.88,0,1.33v3.51q0,3.21.06,6.71c0,1,0,1.94.06,2.93s.05,2.11.08,3.19c.07,2.26.14,4.56.24,6.91l0,1c0,.14,0,.28,0,.42l.09,2.32c0,1.11.1,2.25.15,3.38s.13,2.51.24,3.88c.13,1.71.3,3.52.51,5.44,0,.45.1.9.15,1.36.09.73.17,1.48.27,2.24.06.48.11.95.18,1.44l.12.92q.22,1.73.48,3.54c0,.13,0,.26.05.4.09.61.19,1.22.27,1.84.17,1.19.36,2.41.55,3.64.06.34.11.69.16,1,.33,2.09.68,4.24,1,6.43.07.39.14.78.2,1.17l.45,2.61c.53,3.06,1.1,6.18,1.68,9.36.69,3.67,1.4,7.4,2.15,11.16.6,3.1,1.23,6.21,1.86,9.32,1.49,7.28,3,14.56,4.56,21.58A19.34,19.34,0,0,1,391.84,845.66Z" transform="translate(192.41 -343.3)"/><path class="cls-40" d="M394.94,632.32a252.1,252.1,0,0,1-52.4,5.42q-3.93,0-7.47-.11c-22.29-.65-36.8-3.87-37.4-4l1.05-4.63,1-4.63h0c.28.06,14.5,3.19,35.83,3.79a245.58,245.58,0,0,0,56.08-4.84l.11.13A20.25,20.25,0,0,1,394.94,632.32Z" transform="translate(192.41 -343.3)"/><path class="cls-40" d="M395.59,643.68c0,3-.15,6.32-.35,9.79a250.53,250.53,0,0,1-51.67,5.29c-3.58,0-6.95-.07-10.07-.19-22.28-.87-36.74-4.24-37.35-4.39l2.19-9.24c.15,0,14.37,3.33,35.79,4.15A243.29,243.29,0,0,0,395.59,643.68Z" transform="translate(192.41 -343.3)"/><path class="cls-40" d="M394.44,665.17c-.09,1.19-.18,2.4-.27,3.62s-.19,2.49-.29,3.76L393.7,675a249.89,249.89,0,0,1-49.09,4.78c-4.57,0-8.81-.12-12.67-.31-22.26-1.09-36.69-4.6-37.29-4.75l2.28-9.22c.14,0,14.32,3.47,35.73,4.5A242.46,242.46,0,0,0,394.44,665.17Z" transform="translate(192.41 -343.3)"/><path class="cls-40" d="M392.92,686.75h0c0,.44-.05.88-.08,1.32s0,1-.07,1.45c0,.88-.09,1.77-.13,2.67,0,.73-.07,1.48-.1,2.22,0,.13,0,.27,0,.41q0,.72-.06,1.44v.25a248.63,248.63,0,0,1-46.81,4.36c-5.56,0-10.68-.17-15.27-.45-22.25-1.31-36.64-5-37.24-5.12l2.37-9.2h0c.13,0,3.72.94,9.94,2A239.88,239.88,0,0,0,331.19,691,243.18,243.18,0,0,0,392.92,686.75Z" transform="translate(192.41 -343.3)"/><path class="cls-40" d="M294.1,706.7l-1.24,4.58,1.24-4.58Zm98.24,8.17c0-2.33-.07-4.57-.07-6.71a242.73,242.73,0,0,1-62.54,3.75c-21.3-1.45-35.37-5.15-35.63-5.21l-1.24,4.58-1.23,4.59c.6.16,14.95,4,37.19,5.5,5.29.36,11.29.61,17.87.61a246.43,246.43,0,0,0,45.71-4.18C392.38,716.81,392.35,715.84,392.34,714.87Z" transform="translate(192.41 -343.3)"/><path class="cls-40" d="M393.24,738.93a245.31,245.31,0,0,1-45.52,4.18c-7.6,0-14.5-.34-20.47-.81-22.22-1.76-36.53-5.71-37.13-5.87l1.28-4.57,1.28-4.58h0c.23.07,14.27,3.91,35.58,5.57a241.8,241.8,0,0,0,64.5-3.5l.09,2.32c0,1.11.1,2.24.15,3.38S393.14,737.56,393.24,738.93Z" transform="translate(192.41 -343.3)"/><path class="cls-40" d="M395.82,759.75a242.23,242.23,0,0,1-47.07,4.51c-8.63,0-16.42-.44-23.06-1-22.21-2-36.48-6.07-37.08-6.24l2.65-9.12h0c.14,0,14.17,4,35.52,5.92a240.27,240.27,0,0,0,67.69-3.46q.22,1.73.48,3.54l.06.4c.08.61.18,1.22.26,1.84C395.45,757.3,395.63,758.52,395.82,759.75Z" transform="translate(192.41 -343.3)"/><path class="cls-40" d="M399.37,780.35a238.47,238.47,0,0,1-49.61,5.08c-9.66,0-18.34-.54-25.64-1.27-22.19-2.2-36.43-6.43-37-6.61l2.74-9.09c.14,0,14.14,4.18,35.47,6.28,17.76,1.74,44.06,2.36,72.37-3.74Q398.49,775.59,399.37,780.35Z" transform="translate(192.41 -343.3)"/><path class="cls-40" d="M403.37,800.84a234.67,234.67,0,0,1-52.61,5.79,260.05,260.05,0,0,1-28.21-1.54c-22.17-2.43-36.37-6.8-37-7l1.42-4.54,1.41-4.53h0c.22.07,14.16,4.33,35.41,6.64,18.84,2,47.3,2.9,77.67-4.16C402.11,794.62,402.74,797.73,403.37,800.84Z" transform="translate(192.41 -343.3)"/><path class="cls-18" d="M330.88,832.88c.91-39.16-5.81-84.72-5.75-123.89.05-35.12,2.62-70,2.59-105.11-8.39.63-12,2.06-12,2.06s-8,6.84-34.14,15.34c-24.62,8-20.05,98.8-18.55,149.62s.9,83,49.31,89.21c4.55.58,9,1.1,13.39,1.52C325.8,850,330.61,844.53,330.88,832.88Z" transform="translate(192.41 -343.3)"/><path class="cls-41" d="M278.36,729.63a1.15,1.15,0,0,1-1.11-.9,1.12,1.12,0,0,1,.87-1.33c.62-.13,15.15-3.44,20.16-20.81a1.13,1.13,0,0,1,2.17.63c-5.39,18.71-21.19,22.24-21.86,22.38Z" transform="translate(192.41 -343.3)"/><path class="cls-41" d="M320.62,825.17a.9.9,0,0,1-.89-.84c-3.9-70.12-7-138.66-2.19-206.32a.89.89,0,0,1,1.78.13c-4.8,67.55-1.71,136,2.19,206.09a.88.88,0,0,1-.84.93Z" transform="translate(192.41 -343.3)"/><path class="cls-18" d="M414.91,656.84c1.16-36.18-16.29-45.72-51.13-50.94l-.4-.06a114,114,0,0,0,0,18c.62,9.55,1.73,19,2.12,28.59,1.6,39.88,5.51,67,2.3,119.32-2.41,39.34,3.89,60,5,89.81,19.78-3,35.34-11.05,44.93-27.36C435.73,803.63,413.74,693,414.91,656.84Z" transform="translate(192.41 -343.3)"/><path class="cls-41" d="M410.82,728.41a1.15,1.15,0,0,1-.26,0c-.23,0-23.39-5.73-27.31-39.35a1.13,1.13,0,0,1,2.25-.26c3.73,32.06,25.35,37.36,25.57,37.41a1.13,1.13,0,0,1-.25,2.23Z" transform="translate(192.41 -343.3)"/><path class="cls-41" d="M375.49,818.73a.9.9,0,0,1-.88-.74c-1.63-9.9-1-36.46-.4-62.14.47-19.54.9-38,.39-49.11-1.72-37.64-6.87-90.2-6.92-90.73a.89.89,0,0,1,1.77-.17c.05.52,5.21,53.13,6.93,90.82.51,11.18.08,29.66-.39,49.23-.6,25.6-1.22,52.07.38,61.81a.89.89,0,0,1-.73,1Z" transform="translate(192.41 -343.3)"/><path class="cls-42" d="M343.82,522.93l-17.13,6.21s-5.13,7.08-11.87,5.62c-2.7-.59-5.66-2.55-8.65-6.88-10.44-15.14,14.74-36.12,29.88-32.6,7.43,1.73,9.44,8.42,9.56,14.79A47.13,47.13,0,0,1,343.82,522.93Z" transform="translate(192.41 -343.3)"/><path class="cls-43" d="M343.82,522.93l-17.13,6.21s-5.14,7.08-11.87,5.62c0-7.85,11-22.19,30.79-24.69A47.13,47.13,0,0,1,343.82,522.93Z" transform="translate(192.41 -343.3)"/><path class="cls-43" d="M343.54,492.68a5.36,5.36,0,0,0-1,.11,2.33,2.33,0,0,0-1.81,1.35c-1.54,3.33,1.71,11.25,4,15.93,1.44-5.19,3.16-13.87.73-16.6A2.44,2.44,0,0,0,343.54,492.68ZM345,514a1.08,1.08,0,0,1-.94-.55c-.82-1.47-7.94-14.51-5.31-20.18a4.48,4.48,0,0,1,3.34-2.56,4.94,4.94,0,0,1,5,1.35c4.21,4.76-.49,19.53-1,21.2a1.09,1.09,0,0,1-.92.73Z" transform="translate(192.41 -343.3)"/><path class="cls-43" d="M358,498a1.67,1.67,0,0,0-.31,0c-3.63.48-8,8.17-10.33,13,4.82-2,12.46-5.9,13.48-9.42a2.31,2.31,0,0,0-.48-2.2A3.05,3.05,0,0,0,358,498Zm-12.7,16.09a1.09,1.09,0,0,1-1-1.49c.68-1.62,6.8-15.87,13.11-16.71a4.91,4.91,0,0,1,4.65,2.22,4.47,4.47,0,0,1,.84,4.12c-1.73,6-15.66,11.22-17.24,11.79A1.15,1.15,0,0,1,345.32,514.05Z" transform="translate(192.41 -343.3)"/><path class="cls-42" d="M313.52,537a13.53,13.53,0,0,1-10.59-8c-6.23-13,8.68-23.94,8.84-24.05a.68.68,0,0,1,.79,1.11c-.14.1-14.14,10.4-8.4,22.35,5.13,10.66,16.41,6.91,16.88,6.74a.68.68,0,0,1,.45,1.29A18.88,18.88,0,0,1,313.52,537Z" transform="translate(192.41 -343.3)"/><path class="cls-42" d="M363.15,538.59s6.68,28-2.6,46.15-18.61,23.08-5.28,28.72,28.5-5.1,38.68.48c12.29,6.74-1.49-49.81-7.63-73.74C380,515.72,350.18,513,350.18,513Z" transform="translate(192.41 -343.3)"/><path class="cls-42" d="M380.82,558.72s11.95-27.31-10.45-40.16-45-3.15-51.05,11.65,3.2,24.54,3.2,24.54Z" transform="translate(192.41 -343.3)"/><path class="cls-44" d="M342.44,616.38c6.46,1.8,9.05-1.07,11-3.19l1.34-11.57.78-6.75.16-1-3-.33-21.93-6.32-3,13.9-1.41,6.59C329.29,610.38,333,613.78,342.44,616.38Z" transform="translate(192.41 -343.3)"/><path class="cls-45" d="M354.81,601.62c-6.8,3.06-20.2,1.67-26.93-.49l-.06,0,3-13.88,21.93,6.32,3,.33-.16,1Z" transform="translate(192.41 -343.3)"/><path class="cls-46" d="M372.71,558.89s13-3.78,10.47,7.71c-2.82,12.64-13.18,9-15,8.23Z" transform="translate(192.41 -343.3)"/><path class="cls-23" d="M363.36,579.89A8.84,8.84,0,1,0,375.42,573l0,0c-.62.16-.75.64-.81,1.16a7.44,7.44,0,1,1-7.34,1.37,8.15,8.15,0,0,1,1.08-.77,6.59,6.59,0,0,1-.95-1.07,7.91,7.91,0,0,0-1,.74A8.71,8.71,0,0,0,363.36,579.89Z" transform="translate(192.41 -343.3)"/><path class="cls-47" d="M374.17,571.08l-.08,0a.71.71,0,0,1-.5-.86,11.56,11.56,0,0,1,5.73-7.58.7.7,0,1,1,.59,1.28,10.14,10.14,0,0,0-5,6.66A.72.72,0,0,1,374.17,571.08Z" transform="translate(192.41 -343.3)"/><path class="cls-47" d="M378.83,568.73a.69.69,0,0,1-.5-.33,3,3,0,0,0-2.14-1.42.71.71,0,0,1-.7-.72.7.7,0,0,1,.72-.69,4.46,4.46,0,0,1,3.33,2.1.71.71,0,0,1-.24,1A.66.66,0,0,1,378.83,568.73Z" transform="translate(192.41 -343.3)"/><path class="cls-48" d="M379.85,557.31a74.89,74.89,0,0,1-3.61,13.17c-.69,1.89-1.46,3.71-2.28,5.47-5.74,12.38-14,21.3-20.57,22.07-10.43,1.23-22.27-3.86-28.08-17.44a32.75,32.75,0,0,1-2.42-8.06c-.06-.43-.12-.88-.18-1.34C321,557.07,324.6,537,324.6,537c8.55-12.74,26.93-9.35,37.59-7.59S383.57,536.41,379.85,557.31Z" transform="translate(192.41 -343.3)"/><path class="cls-46" d="M350.5,590.73a8.32,8.32,0,0,1-3.66-1.41.71.71,0,0,1,.87-1.11,7.08,7.08,0,0,0,3.22,1.15,8.45,8.45,0,0,0,3.42-.22.71.71,0,0,1,.9.43.71.71,0,0,1-.42.9,9.56,9.56,0,0,1-4.07.29A2.3,2.3,0,0,1,350.5,590.73Z" transform="translate(192.41 -343.3)"/><path class="cls-49" d="M310.8,726.13a1.08,1.08,0,0,1-1-.74,100.2,100.2,0,0,1-2.64-10.27,1.06,1.06,0,0,1,.85-1.26,1.07,1.07,0,0,1,1.26.84,102.67,102.67,0,0,0,2.57,10,1.06,1.06,0,0,1-.69,1.35A1,1,0,0,1,310.8,726.13Z" transform="translate(192.41 -343.3)"/><path class="cls-49" d="M316.54,724.21a1.07,1.07,0,0,1-1-.73,103.73,103.73,0,0,1-2.78-10.23,1.08,1.08,0,0,1,2.11-.45,101.56,101.56,0,0,0,2.7,10,1.06,1.06,0,0,1-.67,1.36A1,1,0,0,1,316.54,724.21Z" transform="translate(192.41 -343.3)"/><path class="cls-49" d="M322.28,722.29a1.07,1.07,0,0,1-1-.72,102,102,0,0,1-2.91-10.19,1.07,1.07,0,1,1,2.09-.47,101.28,101.28,0,0,0,2.84,10,1.07,1.07,0,0,1-.65,1.37A1.13,1.13,0,0,1,322.28,722.29Z" transform="translate(192.41 -343.3)"/><path class="cls-49" d="M328,720.37a1.09,1.09,0,0,1-1-.7,101,101,0,0,1-3-10.16,1.07,1.07,0,1,1,2.09-.49,100.45,100.45,0,0,0,3,9.9,1.07,1.07,0,0,1-.64,1.38A.94.94,0,0,1,328,720.37Z" transform="translate(192.41 -343.3)"/><path class="cls-49" d="M333.75,718.45a1.08,1.08,0,0,1-1-.69,101.75,101.75,0,0,1-3.18-10.11,1.07,1.07,0,1,1,2.08-.53s1.37,5.36,3.1,9.87a1.06,1.06,0,0,1-.61,1.38A1.09,1.09,0,0,1,333.75,718.45Z" transform="translate(192.41 -343.3)"/><path class="cls-49" d="M339.49,716.53a1.08,1.08,0,0,1-1-.68,102.35,102.35,0,0,1-3.32-10.07,1.09,1.09,0,0,1,.77-1.32,1.07,1.07,0,0,1,1.31.76,101.1,101.1,0,0,0,3.23,9.83,1.08,1.08,0,0,1-.6,1.4A1.09,1.09,0,0,1,339.49,716.53Z" transform="translate(192.41 -343.3)"/><path class="cls-49" d="M345.22,714.6a1.07,1.07,0,0,1-1-.66,101.6,101.6,0,0,1-3.45-10,1.07,1.07,0,0,1,2.07-.58s1.51,5.32,3.37,9.79a1.08,1.08,0,0,1-.59,1.4A1,1,0,0,1,345.22,714.6Z" transform="translate(192.41 -343.3)"/><path class="cls-50" d="M376.13,600.29a30.37,30.37,0,0,1-1.69,8.2c-.24.67-.52,1.32-.82,2h0a18.86,18.86,0,0,1-7.29,8.21A48.91,48.91,0,0,1,330,617.05h0c-1.12-.49-2.24-1-3.38-1.64s-2-1.09-3-1.7c-8.54-5.22-11.93-12.26-12.85-19-.08-.6-.15-1.19-.19-1.78a37.78,37.78,0,0,1,1.31-12.57c.07-.23.13-.45.19-.66a37.54,37.54,0,0,1,2.07-5.66,45.61,45.61,0,0,1,10.22-2.8,35.2,35.2,0,0,1,7-.38,22.42,22.42,0,0,1,8.19,1.88c18.64,8.49,28.08,12.28,33.49,5a61.51,61.51,0,0,1,1.8,6.8c.12.58.23,1.18.35,1.81.32,1.73.6,3.64.79,5.66A48.14,48.14,0,0,1,376.13,600.29Z" transform="translate(192.41 -343.3)"/><path class="cls-51" d="M375.24,586.38c-.25.38-.53.77-.83,1.16-2.36,3-7,6.41-15.56,6.41-.53,0-1.07,0-1.63-.05-8.35-.39-14.86-3.83-21.16-7.16-7.51-4-14.62-7.72-24-5.74l-.13-.6-.12-.6.31-.06c9.7-1.93,16.92,1.88,24.56,5.92,6.17,3.26,12.56,6.64,20.64,7,7.32.35,12.74-1.62,16.13-5.86a14.46,14.46,0,0,0,1.48-2.25C375,585.14,375.13,585.75,375.24,586.38Z" transform="translate(192.41 -343.3)"/><path class="cls-51" d="M374.44,608.49c-.24.67-.52,1.32-.82,2h0a32,32,0,0,1-11.19,3.67,53.52,53.52,0,0,1-7.94.55,81.57,81.57,0,0,1-11.91-.94,127.69,127.69,0,0,1-23.75-6l.44-1.14a126.74,126.74,0,0,0,23.51,6C352.82,614,365.82,614.31,374.44,608.49Z" transform="translate(192.41 -343.3)"/><path class="cls-50" d="M345,706.64,307.19,719s-.5-2.2-1.27-5.94c-.18-.83-.36-1.74-.56-2.72-.53-2.66-1.15-5.82-1.8-9.35-.16-.9-.32-1.82-.49-2.76-.52-3-1.06-6.11-1.58-9.41-.15-.92-.29-1.85-.43-2.78-.47-3.09-.93-6.28-1.34-9.51-.12-.94-.24-1.88-.35-2.82-.39-3.2-.74-6.43-1-9.63-.09-1-.17-1.91-.24-2.87-.26-3.33-.45-6.62-.55-9.79,0-1-.05-2-.06-2.9,0-3.56.05-7,.3-10.09.08-1,.18-2,.3-3,.09-.7.19-1.38.29-2a56.41,56.41,0,0,1,2-8.47c.35-1.07.72-2.1,1.11-3.08,7-17.54,20.73-21,20.73-21,10.18,1,14.65,11.86,14.65,11.86a18.93,18.93,0,0,0-4.73,8.16c-.27.87-.51,1.77-.72,2.71a49.49,49.49,0,0,0-1.07,8.2c-.05.91-.08,1.84-.1,2.78-.05,2.74.05,5.61.26,8.56.07.92.14,1.84.23,2.77.26,2.84.62,5.74,1.05,8.64.14.93.29,1.85.44,2.78.47,2.89,1,5.78,1.59,8.64.18.92.38,1.83.57,2.74.63,2.94,1.3,5.82,2,8.6.22.91.45,1.8.68,2.69.75,3,1.52,5.83,2.27,8.48.25.91.51,1.8.75,2.66.92,3.17,1.78,6,2.52,8.32.3,1,.58,1.85.83,2.64C344.38,705,345,706.64,345,706.64Z" transform="translate(192.41 -343.3)"/><path class="cls-51" d="M332.15,620.83c-.28.87-.52,1.77-.73,2.71-6.68-.83-18.83-1.59-31,1.34.34-1.07.72-2.1,1.11-3.08A83.79,83.79,0,0,1,318.19,620,101.85,101.85,0,0,1,332.15,620.83Z" transform="translate(192.41 -343.3)"/><path class="cls-51" d="M330.36,631.74c-.06.91-.09,1.84-.1,2.78-8-.34-20.52,0-32.46,3.87.08-1,.18-2,.3-3a90.54,90.54,0,0,1,22-3.64C324,631.58,327.46,631.62,330.36,631.74Z" transform="translate(192.41 -343.3)"/><path class="cls-51" d="M330.74,645.85c-8.52.15-21.31,1.21-33.18,5.53,0-1-.05-2-.06-2.9a100.93,100.93,0,0,1,24.52-5c3.11-.26,6-.39,8.5-.43C330.58,644,330.66,644.92,330.74,645.85Z" transform="translate(192.41 -343.3)"/><path class="cls-51" d="M332.24,657.27c-8.8.59-21.9,2.24-33.89,6.77-.09-1-.17-1.91-.24-2.87,12.06-4.45,24.91-6.09,33.69-6.68C331.94,655.42,332.09,656.34,332.24,657.27Z" transform="translate(192.41 -343.3)"/><path class="cls-51" d="M334.4,668.65c-8.94,1-22.44,3.2-34.68,7.84l-.36-2.82c12.3-4.6,25.54-6.76,34.47-7.76C334,666.83,334.2,667.74,334.4,668.65Z" transform="translate(192.41 -343.3)"/><path class="cls-51" d="M337.05,679.94c-9,1.41-22.94,4.14-35.57,8.84-.14-.92-.28-1.84-.42-2.78,12.58-4.61,26.35-7.32,35.32-8.75C336.6,678.16,336.83,679.05,337.05,679.94Z" transform="translate(192.41 -343.3)"/><path class="cls-51" d="M340.09,691.08a276.05,276.05,0,0,0-36.52,9.86c-.17-.89-.33-1.8-.5-2.75a280.61,280.61,0,0,1,36.26-9.77C339.59,689.33,339.84,690.22,340.09,691.08Z" transform="translate(192.41 -343.3)"/><path class="cls-51" d="M343.43,702c-8.58,2.15-23.78,6.2-37.51,11-.18-.83-.36-1.74-.56-2.72,13.65-4.74,28.64-8.73,37.23-10.9C342.9,700.37,343.18,701.24,343.43,702Z" transform="translate(192.41 -343.3)"/><path class="cls-52" d="M330,617.05h0a6.83,6.83,0,0,1-.87-.1,4.69,4.69,0,0,1-2.51-1.54c-6.5-7-8.17-34.6-8.17-34.6s2.43-6,5.94-9.52a34.45,34.45,0,0,1,7-.39c.51,5.18,2.26,21.71,4.29,26.25C338,602.38,337.73,617.47,330,617.05Z" transform="translate(192.41 -343.3)"/><path class="cls-51" d="M376.14,600.29c-9.5,7.35-30.22,3.12-49.13-2.44a76.47,76.47,0,0,0-16.24-3.1c-.08-.6-.15-1.19-.19-1.78,8.22.51,19.24,2.82,32.88,5.91,20.24,4.59,29.46-3.15,32.57-6.84A49.17,49.17,0,0,1,376.14,600.29Z" transform="translate(192.41 -343.3)"/><path class="cls-45" d="M362.42,562.88c-.31,2,.33,3.75,1.44,3.93s2.28-1.3,2.59-3.3a5.74,5.74,0,0,0,0-2.16,2.77,2.77,0,0,0,2.83-.74,13.74,13.74,0,0,1-3.79-.85l-.45-.17C363.89,559.41,362.73,560.88,362.42,562.88Z" transform="translate(192.41 -343.3)"/><path class="cls-45" d="M365,559.59l.46.17A1.07,1.07,0,0,0,365,559.59Z" transform="translate(192.41 -343.3)"/><path class="cls-53" d="M376.25,570.48c-.7,1.89-1.47,3.71-2.28,5.47a19.16,19.16,0,0,1-2.86-.19c-4.43-.63-7.82-2.57-7.57-4.33s4-2.68,8.48-2.06A18.34,18.34,0,0,1,376.25,570.48Z" transform="translate(192.41 -343.3)"/><path class="cls-53" d="M343.71,568c-.26,1.78-4.09,2.71-8.57,2.08s-7.9-2.59-7.65-4.38,4.09-2.7,8.57-2.07S344,566.19,343.71,568Z" transform="translate(192.41 -343.3)"/><path class="cls-44" d="M325.22,556.71a4.6,4.6,0,0,0-1.85-4.36c-3.42-2.48-8-3.89-10.27.62-4.21,8.38,3.44,19.6,10.06,18.12Z" transform="translate(192.41 -343.3)"/><path class="cls-46" d="M326.61,570.54l-.39.34a7.76,7.76,0,0,1-1.16.8,8.35,8.35,0,0,1-2.16.85c-.07-.45-.13-.89-.18-1.35a7.43,7.43,0,0,0,1.53-.55,6.79,6.79,0,0,0,1.22-.75c.16-.13.32-.26.47-.4a.48.48,0,0,1,.78.11A.77.77,0,0,1,326.61,570.54Z" transform="translate(192.41 -343.3)"/><path class="cls-46" d="M320.2,565.27a.71.71,0,0,1-.6-.72,11.35,11.35,0,0,0-3.49-8.7.71.71,0,1,1,.9-1.09,12.6,12.6,0,0,1,4,9.83.71.71,0,0,1-.73.69Z" transform="translate(192.41 -343.3)"/><path class="cls-46" d="M315.69,561.31a.74.74,0,0,1-.43-.24.7.7,0,0,1,.07-1,5.22,5.22,0,0,1,4.3-1.17.7.7,0,1,1-.36,1.36,3.87,3.87,0,0,0-3,.88A.69.69,0,0,1,315.69,561.31Z" transform="translate(192.41 -343.3)"/><path class="cls-46" d="M357.25,570.43ZM353.7,574a.71.71,0,0,1-.6-.59.72.72,0,0,1,.42-.75,13.24,13.24,0,0,0,3.71-2.33l-1.55-8.27a.71.71,0,0,1,.57-.82.7.7,0,0,1,.82.56l1.57,8.38c.07.37.28,1.49-4.53,3.76A.66.66,0,0,1,353.7,574Z" transform="translate(192.41 -343.3)"/><path class="cls-45" d="M344.72,560.24c-.28,2-1.41,3.49-2.53,3.34s-1.8-1.91-1.51-3.91a5.57,5.57,0,0,1,.68-2,2.78,2.78,0,0,1-2.5-1.54,13.65,13.65,0,0,0,3.87.29l.49,0C344.33,556.49,345,558.24,344.72,560.24Z" transform="translate(192.41 -343.3)"/><path class="cls-45" d="M343.22,556.34l-.48,0A1.12,1.12,0,0,1,343.22,556.34Z" transform="translate(192.41 -343.3)"/><path class="cls-54" d="M372.63,559.69a14.49,14.49,0,0,0-1.51-2.41,14.34,14.34,0,0,0-1.92-2,10.62,10.62,0,0,0-2.24-1.51,10.06,10.06,0,0,0-2.44-.88l-.08,0a1.66,1.66,0,1,1,.82-3.21,1.33,1.33,0,0,1,.3.11,13.29,13.29,0,0,1,2.89,1.74,13.62,13.62,0,0,1,2.29,2.33,16,16,0,0,1,1.67,2.69,14.84,14.84,0,0,1,1.09,2.92.46.46,0,0,1-.33.56.45.45,0,0,1-.52-.25Z" transform="translate(192.41 -343.3)"/><path class="cls-54" d="M334.55,553.64a18.08,18.08,0,0,1,5.26-4.73,14.77,14.77,0,0,1,3.37-1.49,15,15,0,0,1,3.74-.62,1.65,1.65,0,1,1,.22,3.3h-.38a11.58,11.58,0,0,0-3,0,12.54,12.54,0,0,0-3,.74,16.82,16.82,0,0,0-2.89,1.42,17.36,17.36,0,0,0-2.59,2l0,0a.45.45,0,0,1-.68-.6Z" transform="translate(192.41 -343.3)"/><path class="cls-42" d="M333.74,535.37s13.11,17.87,43.75,17c16.48-.47,2.16-26.15-22.4-27.6S333.74,535.37,333.74,535.37Z" transform="translate(192.41 -343.3)"/><path class="cls-45" d="M377.56,549.57s1.84,13.62-1.31,20.91c0,0,5.92-12.19,4.07-19.9S377.56,549.57,377.56,549.57Z" transform="translate(192.41 -343.3)"/><path class="cls-42" d="M342,535.43s-14.6,24.84-11,44.9,8.78,36-5.62,37.52-23.7-4.11-36.46.93h0l-.4.16a3.63,3.63,0,0,1-.91.26c-2.21.28-2.63-2.6-1.8-7.51.29-1.74.74-3.73,1.32-5.92,2.69-10.16,8.22-24.7,14.22-38.68,4.72-11,9.73-21.6,13.9-29.48,1.51-2.87,2.92-5.37,4.16-7.4,13.18-21.58,42.53-15.5,42.53-15.5Z" transform="translate(192.41 -343.3)"/><path class="cls-42" d="M316,538.56c-.13.24-7.57,13.89-14.77,28.53-5.88,11.95-11.6,24.56-13.08,31.09a49.16,49.16,0,0,0-1.14,7.59c-.49,7.17,1.07,11.44,1.79,13l-.4.16a3.63,3.63,0,0,1-.91.26,23.59,23.59,0,0,1-1.8-7.51,44.28,44.28,0,0,1,1.13-13.81c3.34-14.73,27-58.13,28-60a.65.65,0,0,1,.32-.29.7.7,0,0,1,.6,0A.69.69,0,0,1,316,538.56Z" transform="translate(192.41 -343.3)"/><g class="cls-55"><g class="cls-55"><g class="cls-55"><g class="cls-55"><g class="cls-55"><g class="cls-55"><path class="cls-56" d="M359.28,552.4s-15.9-4.82-20.43,12.63,11.15,25.29,21.09,23.38S376.43,555.36,359.28,552.4Z" transform="translate(192.41 -343.3)"/></g></g></g></g></g></g><path class="cls-23" d="M343.42,550.55a10.77,10.77,0,1,0,10.79,10.77A10.79,10.79,0,0,0,343.42,550.55Zm0,23a12.25,12.25,0,1,1,12.27-12.25A12.27,12.27,0,0,1,343.42,573.57Z" transform="translate(192.41 -343.3)"/><path class="cls-23" d="M370.61,556.05a10.77,10.77,0,1,0,10.79,10.77A10.79,10.79,0,0,0,370.61,556.05Zm0,23a12.25,12.25,0,1,1,12.27-12.25A12.27,12.27,0,0,1,370.61,579.07Z" transform="translate(192.41 -343.3)"/><path class="cls-23" d="M359,563.64c-1.31-2-3.72-1.16-3.82-1.13l-.51-1.39a4.73,4.73,0,0,1,5.57,1.71Z" transform="translate(192.41 -343.3)"/><path class="cls-51" d="M378.55,845c-3.43,2.46-8.11,9.81-16.23,12.39-46.16,14.67-89.24-13.79-89.24-13.79-2.56-12.62-1-27,3.28-32.21a4.61,4.61,0,0,1-.45-4.09L255.58,769.7c.49.31,31.89,20.12,55.15,34.16h0c6.7,4,12.73,7.6,17.15,10.08,6.74,3.77,15.34,4.14,23.77,3,16.43-2.26,32.19-10.34,32.19-10.34s39.31-23.14,49.23-22.34C440.79,784.86,412.88,827.31,378.55,845Z" transform="translate(192.41 -343.3)"/><path class="cls-23" d="M291.61,883.08s-2.48.47-6.52,1.3l-3.8.78-6,1.29-3.79.85c-16.19,3.68-37.62,9.28-46.24,14.75-.61.39-1.2.77-1.76,1.15-13.15,8.82-15.84,16.44-18.28,14.9s-3.11-8.22,1-12.56c2.87-3,4.89-7.41,8.75-12.15a40.91,40.91,0,0,1,3.59-3.91c6-5.81,15.7-11.82,21.1-16.43.35-.3.68-.59,1-.88,4.44-4.09,6.18-12.51,14.28-15.06,4-1.25,8.71-.76,13.29.44.82.21,1.63.45,2.42.71,1.19.38,2.36.8,3.48,1.23,1.55.6,3,1.24,4.37,1.87s2.46,1.18,3.47,1.71c2.43,1.27,3.94,2.22,3.94,2.22Z" transform="translate(192.41 -343.3)"/><path class="cls-57" d="M268.28,857.55c-4.79,6.26-15.83,18.23-28.56,15.5l1-.88c4.44-4.09,6.17-12.5,14.28-15.06C259,855.86,263.7,856.35,268.28,857.55Z" transform="translate(192.41 -343.3)"/><path class="cls-57" d="M223.52,903.2c-13.15,8.82-15.84,16.44-18.28,14.9s-3.11-8.22,1-12.57c2.88-3,4.89-7.4,8.75-12.14C218.28,895.69,221.74,899,223.52,903.2Z" transform="translate(192.41 -343.3)"/><path class="cls-57" d="M285.09,884.38l-3.81.78a31.75,31.75,0,0,1-3.52-15.76,50.09,50.09,0,0,1,.78-8c1.29.6,2.46,1.18,3.47,1.71a47,47,0,0,0-.54,6.41C281.42,874.26,282.2,879.74,285.09,884.38Z" transform="translate(192.41 -343.3)"/><path class="cls-57" d="M274.18,859.49c-1.12-.43-2.29-.85-3.48-1.23a49.32,49.32,0,0,0-2.38,10.46c-.81,7.19.29,13.51,3.19,18.58l3.79-.85C269.15,877.05,272.54,864.31,274.18,859.49Z" transform="translate(192.41 -343.3)"/><path class="cls-50" d="M485.65,814.79c-17.33,21.13-56.29,42.74-98,55.28-14.47,4.35-26.89,7.62-37.49,10.07-8.35,1.93-15.57,3.35-21.77,4.39-23.94,4-32.73,2.33-32.73,2.33s-14.77-4.74-8.44-28.68c0,0,28-6.43,49.69-17.13A92.75,92.75,0,0,0,349.14,834q1.28-.88,2.52-1.8c20.16-14.74,37.4-34.76,82.84-52.87,0,0,23.76-14.4,42.86-7.94a26.69,26.69,0,0,1,8,4.26C499.19,786.51,497.35,800.54,485.65,814.79Z" transform="translate(192.41 -343.3)"/><path class="cls-51" d="M400.78,863.59l-9,1.24L337,841.05A93.4,93.4,0,0,0,349.15,834q1.28-.88,2.52-1.8Z" transform="translate(192.41 -343.3)"/><path class="cls-51" d="M350.2,880.14c-8.34,1.93-15.57,3.35-21.77,4.39C311,879.8,290.12,871,290.12,871l1.36-10.81Z" transform="translate(192.41 -343.3)"/><path class="cls-51" d="M485.65,814.79c-14.3-19.18-11.46-35.25-8.29-43.42a26.69,26.69,0,0,1,8,4.26C499.19,786.51,497.35,800.54,485.65,814.79Z" transform="translate(192.41 -343.3)"/><path class="cls-51" d="M289.64,865.32c14.57-2.85,44.54-15.06,80.17-32.66,26.64-13.17,57.44-30.13,62.12-36.27,2.53-3.32,3.24-6.09,2.14-8.23-1.66-3.21-6.81-3.76-9.16-3.83a1,1,0,0,0-1.08,1.07,1,1,0,0,0,1,1c2.31.09,6.32.65,7.38,2.7.88,1.71-.58,4.21-1.95,6-3.77,5-29.58,20-61.38,35.66C341.5,844.31,306.2,860,289.24,863.27Z" transform="translate(192.41 -343.3)"/><path class="cls-51" d="M292.79,855.19c1.08,12.78,3.89,24.47,10.7,33.63,0,0-6.34,4.17-11.83.75-4.19-2.61-11.63-22.8-8-33.26C287.32,854.5,290.45,854,292.79,855.19Z" transform="translate(192.41 -343.3)"/><path class="cls-23" d="M393.13,888.24s2.45.63,6.43,1.72c1.13.3,2.38.65,3.74,1,1.8.5,3.77,1.07,5.88,1.68l3.73,1.09c15.91,4.73,36.92,11.72,45.17,17.74q.87.63,1.68,1.26c12.54,9.66,14.73,17.44,17.26,16.06s3.65-8-.21-12.6c-2.67-3.19-4.39-7.71-7.93-12.7a43.08,43.08,0,0,0-3.33-4.13c-5.64-6.2-14.9-12.82-20-17.77-.33-.32-.64-.64-.93-.94-4.16-4.37-5.34-12.89-13.26-16-3.88-1.5-8.64-1.33-13.29-.42-.83.16-1.66.34-2.46.54-1.22.3-2.41.64-3.56,1-1.59.51-3.1,1-4.48,1.58s-2.53,1-3.57,1.49c-2.51,1.11-4.08,2-4.08,2Z" transform="translate(192.41 -343.3)"/><path class="cls-57" d="M418.09,864.29c4.37,6.56,14.6,19.22,27.48,17.32-.33-.31-.64-.63-.93-.93-4.16-4.38-5.34-12.89-13.26-16C427.51,863.21,422.74,863.38,418.09,864.29Z" transform="translate(192.41 -343.3)"/><path class="cls-57" d="M459.76,912.76c12.54,9.66,14.73,17.44,17.26,16.06s3.65-8-.21-12.6c-2.67-3.2-4.39-7.71-7.94-12.7C465.48,905.61,461.81,908.64,459.76,912.76Z" transform="translate(192.41 -343.3)"/><path class="cls-57" d="M399.56,890c1.13.3,2.38.65,3.74,1a31.81,31.81,0,0,0,4.55-15.49,49.58,49.58,0,0,0-.26-8.08c-1.32.51-2.53,1-3.57,1.48a44.45,44.45,0,0,1,.12,6.43C403.88,880.1,402.74,885.52,399.56,890Z" transform="translate(192.41 -343.3)"/><path class="cls-57" d="M409.18,892.67l3.73,1.09c3.23-4.87,4.74-11.1,4.41-18.34a49.63,49.63,0,0,0-1.7-10.59c-1.21.3-2.4.64-3.55,1C413.4,870.75,415.94,883.68,409.18,892.67Z" transform="translate(192.41 -343.3)"/><path class="cls-50" d="M397.77,864c4.75,24.31-10.3,28.07-10.3,28.07s-22.42,2.76-90.69-22.77c-39.37-14.71-75.66-37.7-92.43-59.26-12.31-15.83-14.09-30.9,1.16-41.34a27.81,27.81,0,0,1,11.56-4.43c18.89-3,41.21,9.73,41.21,9.73,46,21.9,34.47,29.42,72.81,53.8C353,841.75,397.77,864,397.77,864Z" transform="translate(192.41 -343.3)"/><path class="cls-51" d="M217.07,764.28c.73,8.22,2,35.7-12.72,45.77-12.31-15.83-14.1-30.9,1.17-41.34A27.72,27.72,0,0,1,217.07,764.28Z" transform="translate(192.41 -343.3)"/><path class="cls-51" d="M394.93,871c-14.36-3.8-43.46-17.94-77.85-37.83-25.73-14.87-55.35-33.82-59.62-40.24-2.3-3.48-2.84-6.29-1.59-8.36,1.86-3.1,7-3.3,9.39-3.22a1,1,0,0,1-.06,2.09c-2.31-.07-6.35.23-7.54,2.21-1,1.64.3,4.23,1.55,6.12,3.44,5.19,28.22,21.84,58.92,39.6,26.43,15.28,60.63,33.19,77.33,37.61Z" transform="translate(192.41 -343.3)"/><path class="cls-51" d="M392.45,860.67c-1.92,12.68-5.49,24.16-12.89,32.86,0,0,6.06,4.57,11.76,1.52,4.35-2.33,13.1-22,10.19-32.67C398,860.33,394.87,859.58,392.45,860.67Z" transform="translate(192.41 -343.3)"/><path class="cls-18" d="M461.28,763.83c-5.09,6.51-12.13,10.15-17.71,13.88-13.42,9-40.66,14.62-38.61-16.25s25.44-18.35,8.23-72.57c-7.35-23.13-12.41-70.81-12.41-70.81S439.23,645,462,711.28a134.31,134.31,0,0,1,4.09,14.19C470.47,745.05,467.16,756.34,461.28,763.83Z" transform="translate(192.41 -343.3)"/><path class="cls-41" d="M461.28,763.83c-8.34-14.87-1.42-29.57,4.78-38.36C470.46,745.05,467.15,756.34,461.28,763.83Z" transform="translate(192.41 -343.3)"/><path class="cls-41" d="M404.87,767a.92.92,0,0,1-.9-.73,32,32,0,0,1,1.21-14.89c2.36-7.67,8.58-18.58,24.79-27a.92.92,0,1,1,.85,1.63c-15.6,8.1-21.58,18.51-23.84,25.81a30.89,30.89,0,0,0-1.21,14.07.92.92,0,0,1-.71,1.09Z" transform="translate(192.41 -343.3)"/><path class="cls-41" d="M418.84,733.35a1,1,0,0,1-.39,0,.92.92,0,0,1-.58-1.16,108,108,0,0,1,5-12.83.92.92,0,0,1,1.64.83,107.26,107.26,0,0,0-4.87,12.58A.91.91,0,0,1,418.84,733.35Z" transform="translate(192.41 -343.3)"/><path class="cls-41" d="M419.88,729.31a.92.92,0,0,1-.92-.92c0-18.06-24.19-59-24.44-59.39a.92.92,0,1,1,1.59-.93c1,1.69,24.69,41.75,24.69,60.32A.92.92,0,0,1,419.88,729.31Z" transform="translate(192.41 -343.3)"/><path class="cls-41" d="M402.76,682.88a1,1,0,0,1-.56-.18c-3.13-2.34-11.05-4.4-11.13-4.42a.92.92,0,0,1,.47-1.78c.33.09,8.35,2.17,11.77,4.73a.92.92,0,0,1-.55,1.65Z" transform="translate(192.41 -343.3)"/><path class="cls-58" d="M391.48,811.92c.15,1.63.29,3.33.49,4.71.38,2.6,1,4,2.27,1.55a9.09,9.09,0,0,0,.71-2.09c1.12-4.77.75-13.16,1.26-15,.59-2.08,3-8,3.23-8.33a29.74,29.74,0,0,0-1.33,6.1c-.12,2.09,0,4.63,0,9.78a40.53,40.53,0,0,0,.37,6.26h0c.36,2.19,1.07,3.3,2.38,1.78a7.82,7.82,0,0,0,1.33-3.6c.7-4,.45-9.7.82-11.56a35.77,35.77,0,0,1,2.66-6.78,22.55,22.55,0,0,0-1.2,5.69c-.3,2.35-.85,8.61-.27,11.42.25,1.21.71,1.78,1.5,1.12a9.65,9.65,0,0,0,2.67-4.29,28.84,28.84,0,0,0,1.26-6.3,15.93,15.93,0,0,1,2.06-6.53c-.9,4.37-1.4,8.6-1.13,10.79.18,1.54.75,2.06,1.82.89,2.08-2.29,4.19-9.85,4.92-12.69l.06-.26c0-.09.05-.16.07-.24.09-.38.15-.59.15-.59h0a67.54,67.54,0,0,1,1.95-6.86c1.19-3.15,3-5.76,6.35-7,7.7-2.86,5.34-17.48-5.46-18.36a12.46,12.46,0,0,0-8.73,2.74c-1.57,1.25-3.79,3-6,4.71h0c-.21.27-7.24,8.95-9.44,14.36A103,103,0,0,0,391.66,800,52.32,52.32,0,0,0,391.48,811.92Z" transform="translate(192.41 -343.3)"/><path class="cls-18" d="M221.74,771c5.13,6.68,12.21,10.41,17.82,14.23,13.51,9.19,40.92,15,38.86-16.65s-25.6-18.83-8.28-74.42c7.39-23.72,8.28-71,8.28-71S243.93,649.16,221,717.16a138.28,138.28,0,0,0-4.11,14.55C212.5,751.79,215.84,763.36,221.74,771Z" transform="translate(192.41 -343.3)"/><path class="cls-41" d="M222,772.34c8.34-14.87,1.42-29.56-4.79-38.35C212.77,753.57,216.08,764.85,222,772.34Z" transform="translate(192.41 -343.3)"/><path class="cls-41" d="M278.37,775.5a.92.92,0,0,0,.9-.72,32.12,32.12,0,0,0-1.22-14.9c-2.36-7.67-8.57-18.58-24.78-27a.92.92,0,1,0-.86,1.63C268,742.61,274,753,276.26,760.32a30.89,30.89,0,0,1,1.21,14.07.91.91,0,0,0,.71,1.09A.62.62,0,0,0,278.37,775.5Z" transform="translate(192.41 -343.3)"/><path class="cls-41" d="M264.4,741.87a1,1,0,0,0,.39,0,.92.92,0,0,0,.58-1.16,108,108,0,0,0-5-12.83.92.92,0,1,0-1.64.84,108.81,108.81,0,0,1,4.87,12.57A.93.93,0,0,0,264.4,741.87Z" transform="translate(192.41 -343.3)"/><path class="cls-41" d="M263.36,737.83a.92.92,0,0,0,.92-.92c0-18.07,24.19-59,24.43-59.39a.92.92,0,0,0-1.58-.94c-1,1.7-24.69,41.76-24.69,60.33A.92.92,0,0,0,263.36,737.83Z" transform="translate(192.41 -343.3)"/><path class="cls-41" d="M280.48,691.39a.86.86,0,0,0,.55-.18c3.13-2.33,11.05-4.4,11.13-4.42a.92.92,0,1,0-.46-1.78c-.34.09-8.35,2.18-11.77,4.73a.91.91,0,0,0,.55,1.65Z" transform="translate(192.41 -343.3)"/><path class="cls-58" d="M291.76,820.43c-.16,1.63-.29,3.34-.49,4.71-.38,2.6-1,4-2.27,1.55a8.84,8.84,0,0,1-.71-2.08c-1.12-4.77-.75-13.17-1.27-15-.58-2.08-3-8-3.22-8.32a30.3,30.3,0,0,1,1.33,6.09c.12,2.09,0,4.63,0,9.78a40.53,40.53,0,0,1-.37,6.26h0c-.36,2.18-1.07,3.29-2.38,1.78a7.91,7.91,0,0,1-1.33-3.61c-.7-4-.45-9.7-.82-11.56a35.3,35.3,0,0,0-2.66-6.77,22.36,22.36,0,0,1,1.2,5.68c.3,2.35.85,8.62.27,11.42-.25,1.21-.72,1.78-1.5,1.12a9.62,9.62,0,0,1-2.67-4.28,29,29,0,0,1-1.26-6.31,15.85,15.85,0,0,0-2.07-6.53c.91,4.38,1.41,8.61,1.14,10.79-.19,1.55-.75,2.07-1.82.89-2.09-2.28-4.19-9.85-4.92-12.69,0-.09-.05-.18-.07-.26s0-.16-.06-.23c-.1-.38-.15-.6-.15-.6h0a68.28,68.28,0,0,0-2-6.86c-1.19-3.15-2.95-5.76-6.35-7-7.71-2.85-5.34-17.48,5.46-18.36a12.42,12.42,0,0,1,8.73,2.75c1.57,1.25,3.79,3,6,4.7h0c.21.27,7.24,9,9.43,14.36a102.49,102.49,0,0,1,4.56,16.66A52.82,52.82,0,0,1,291.76,820.43Z" transform="translate(192.41 -343.3)"/></svg>